<svg width="103" height="99" viewBox="0 0 103 99" fill="none" xmlns="http://www.w3.org/2000/svg">
<path d="M100.854 0.00010339H27.8101C24.0997 0.000786096 20.5415 1.47504 17.9178 4.09868C15.2942 6.72232 13.82 10.2805 13.8193 13.9909V77.5934H2.14594C1.86337 77.5906 1.58308 77.6443 1.32148 77.7511C1.05987 77.858 0.822208 78.0159 0.622391 78.2157C0.422574 78.4155 0.264618 78.6532 0.157767 78.9148C0.0509162 79.1764 -0.00268403 79.4567 0.000103391 79.7393V84.5459C0.000786096 88.2563 1.47504 91.8145 4.09868 94.4382C6.72232 97.0618 10.2805 98.5361 13.9909 98.5368C13.9909 98.5368 75.4905 98.5368 75.6193 98.4938C79.2506 98.3916 82.6989 96.8773 85.2314 94.2728C87.7638 91.6682 89.1807 88.1787 89.1809 84.5459V20.7289C92.8576 20.6707 96.3647 19.1726 98.9487 16.5565C101.533 13.9404 102.987 10.4151 103 6.73802V2.14594C103.003 1.86337 102.949 1.58308 102.842 1.32148C102.736 1.05987 102.578 0.822208 102.378 0.622391C102.178 0.422574 101.94 0.264619 101.679 0.157767C101.417 0.0509163 101.137 -0.00268403 100.854 0.00010339ZM13.9909 94.2451C12.7169 94.2464 11.455 93.9964 10.2777 93.5095C9.10032 93.0225 8.03057 92.3081 7.12966 91.4072C6.22874 90.5063 5.51436 89.4366 5.0274 88.2592C4.54043 87.0819 4.29045 85.82 4.29177 84.5459V81.8851H61.4568C61.2841 82.7615 61.1979 83.6527 61.1993 84.5459C61.2024 88.1615 62.6015 91.6362 65.1047 94.2451H13.9909ZM84.8893 84.5459C84.8893 87.1183 83.8674 89.5853 82.0485 91.4043C80.2295 93.2232 77.7625 94.2451 75.1901 94.2451C72.6177 94.2451 70.1507 93.2232 68.3318 91.4043C66.5128 89.5853 65.4909 87.1183 65.4909 84.5459C65.4705 83.1998 65.749 81.866 66.3064 80.6405C66.4654 80.3155 66.5372 79.9547 66.5146 79.5935C66.492 79.2323 66.3759 78.8832 66.1776 78.5805C65.9825 78.2795 65.7156 78.0317 65.401 77.8594C65.0863 77.6871 64.7338 77.5957 64.3751 77.5934H18.1109V13.9909C18.1096 12.7169 18.3596 11.455 18.8466 10.2777C19.3335 9.10032 20.0479 8.03057 20.9488 7.12966C21.8497 6.22874 22.9195 5.51436 24.0968 5.0274C25.2742 4.54043 26.536 4.29045 27.8101 4.29177H84.8893V84.5459ZM98.7084 6.73802C98.699 9.27795 97.6976 11.7137 95.9177 13.5257C94.1378 15.3376 91.7203 16.3824 89.1809 16.4372V4.29177H98.7084V6.73802ZM65.4909 36.4793C63.632 36.5149 61.8137 37.0305 60.2128 37.9761C58.6119 38.9217 57.2827 40.2651 56.3542 41.876C55.4256 43.4869 54.9294 45.3105 54.9135 47.1697C54.8977 49.029 55.3629 50.8607 56.2639 52.4872V65.448C56.2674 65.828 56.3678 66.2008 56.5556 66.5312C56.7433 66.8617 57.0122 67.1387 57.3368 67.3363C57.6762 67.5125 58.0543 67.6009 58.4366 67.5934C58.8189 67.5859 59.1933 67.4828 59.5255 67.2934L65.4909 63.6455L71.5422 67.2934C71.8641 67.4898 72.2323 67.5972 72.6093 67.6047C72.9863 67.6122 73.3586 67.5195 73.688 67.3361C74.0241 67.1478 74.3044 66.874 74.5004 66.5423C74.6963 66.2106 74.801 65.833 74.8039 65.4478V52.4014C75.6864 50.7711 76.134 48.9409 76.1033 47.0873C76.0727 45.2337 75.5649 43.4193 74.6289 41.8191C73.6929 40.2188 72.3604 38.8868 70.7598 37.9515C69.1592 37.0162 67.3445 36.5092 65.4909 36.4793ZM60.1693 50.6847C59.5314 49.7226 59.1662 48.6056 59.1126 47.4525C59.0591 46.2994 59.3191 45.1533 59.8651 44.1362C60.411 43.1191 61.2225 42.2691 62.2132 41.6765C63.2038 41.0839 64.3366 40.771 65.4909 40.771C66.6453 40.771 67.7781 41.0839 68.7687 41.6765C69.7594 42.2691 70.5708 43.1191 71.1168 44.1362C71.6628 45.1533 71.9228 46.2994 71.8693 47.4525C71.8157 48.6056 71.4505 49.7226 70.8126 50.6847L70.7697 50.7276C70.1805 51.5832 69.3922 52.2828 68.4726 52.7661C67.5531 53.2494 66.5298 53.5019 65.4909 53.5019C64.4521 53.5019 63.4288 53.2494 62.5092 52.7661C61.5897 52.2828 60.8013 51.5832 60.2122 50.7276C60.2123 50.7219 60.2113 50.7163 60.2092 50.711C60.207 50.7058 60.2039 50.701 60.1999 50.697C60.1959 50.693 60.1911 50.6898 60.1858 50.6877C60.1806 50.6856 60.1749 50.6846 60.1693 50.6847ZM70.5122 61.6284L66.6068 59.3109C66.2726 59.1007 65.8858 58.9891 65.4909 58.9891C65.0961 58.9891 64.7093 59.1007 64.3751 59.3109L60.5555 61.6284V56.6072C62.0907 57.4146 63.7993 57.8365 65.5339 57.8365C67.2684 57.8365 68.977 57.4146 70.5122 56.6072V61.6284ZM74.044 22.3659H26.5129C25.9438 22.3659 25.398 22.1398 24.9955 21.7374C24.5931 21.335 24.367 20.7892 24.367 20.2201C24.367 19.651 24.5931 19.1052 24.9955 18.7027C25.398 18.3003 25.9438 18.0742 26.5129 18.0742H74.0439C74.613 18.0742 75.1588 18.3003 75.5613 18.7027C75.9637 19.1052 76.1898 19.651 76.1898 20.2201C76.1898 20.7892 75.9637 21.335 75.5613 21.7374C75.1588 22.1398 74.6131 22.3659 74.044 22.3659ZM53.9184 34.5082H26.5129C25.9438 34.5082 25.398 34.2821 24.9955 33.8797C24.5931 33.4772 24.367 32.9314 24.367 32.3623C24.367 31.7932 24.5931 31.2474 24.9955 30.845C25.398 30.4426 25.9438 30.2165 26.5129 30.2165H53.9184C54.4875 30.2165 55.0333 30.4426 55.4357 30.845C55.8381 31.2474 56.0642 31.7932 56.0642 32.3623C56.0642 32.9314 55.8381 33.4772 55.4357 33.8797C55.0333 34.2821 54.4875 34.5082 53.9184 34.5082ZM41.6762 46.6505H26.5129C25.9438 46.6505 25.398 46.4244 24.9955 46.022C24.5931 45.6196 24.367 45.0738 24.367 44.5047C24.367 43.9356 24.5931 43.3898 24.9955 42.9874C25.398 42.5849 25.9438 42.3589 26.5129 42.3589H41.6762C42.2453 42.3589 42.7911 42.5849 43.1936 42.9874C43.596 43.3898 43.8221 43.9356 43.8221 44.5047C43.8221 45.0738 43.596 45.6196 43.1936 46.022C42.7911 46.4244 42.2453 46.6505 41.6762 46.6505ZM41.6762 58.7928H26.5129C25.9438 58.7928 25.398 58.5667 24.9955 58.1643C24.5931 57.7619 24.367 57.2161 24.367 56.647C24.367 56.0779 24.5931 55.5321 24.9955 55.1296C25.398 54.7272 25.9438 54.5011 26.5129 54.5011H41.6762C42.2453 54.5011 42.7911 54.7272 43.1936 55.1296C43.596 55.5321 43.8221 56.0779 43.8221 56.647C43.8221 57.2161 43.596 57.7619 43.1936 58.1643C42.7911 58.5667 42.2453 58.7928 41.6762 58.7928Z" fill="#9DA07C"/>
</svg>
