<svg width="107" height="107" viewBox="0 0 107 107" fill="none" xmlns="http://www.w3.org/2000/svg">
<g clip-path="url(#clip0_3_121)">
<path d="M75.0624 14.4483C75.0624 19.7603 79.3842 24.0819 84.6961 24.0819C90.0081 24.0819 94.3297 19.7603 94.3297 14.4483C94.3297 9.13637 90.0081 4.81458 84.6961 4.81458C79.3842 4.81458 75.0624 9.13637 75.0624 14.4483ZM91.1947 14.4483C91.1947 18.0316 88.2794 20.9471 84.6959 20.9471C81.1125 20.9471 78.1969 18.0318 78.1969 14.4483C78.1969 10.8649 81.1123 7.94934 84.6959 7.94934C88.2794 7.94934 91.1947 10.8647 91.1947 14.4483Z" fill="#9DA07C"/>
<path d="M12.3021 14.4483C12.3021 19.7603 16.6239 24.0819 21.9359 24.0819C27.2478 24.0819 31.5694 19.7603 31.5694 14.4483C31.5694 9.13637 27.2478 4.81458 21.9359 4.81458C16.6239 4.81458 12.3021 9.13637 12.3021 14.4483ZM28.4345 14.4483C28.4345 18.0316 25.5191 20.9471 21.9357 20.9471C18.3522 20.9471 15.4367 18.0318 15.4367 14.4483C15.4367 10.8649 18.352 7.94934 21.9357 7.94934C25.5191 7.94934 28.4345 10.8647 28.4345 14.4483Z" fill="#9DA07C"/>
<path d="M29.9991 102.185C32.9522 102.183 35.1549 99.6156 34.859 96.8095L33.0663 77.5596H35.7131C37.1783 77.5596 38.19 76.0833 37.6546 74.7149L32.8287 62.3844C30.0156 55.1966 30.1017 51.3065 30.2323 45.4178C30.2869 42.9537 30.3487 40.162 30.2068 36.6902C30.2168 36.4097 30.4168 36.2555 30.8018 36.2317C30.914 36.2258 31.4695 36.2131 31.5243 36.6538C31.5337 36.7326 31.3984 35.9694 34.5182 53.1855C34.8732 55.8338 37.2922 57.7123 39.9593 57.3807C42.6305 57.0488 44.5339 54.6054 44.2019 51.9337C44.1987 51.9078 44.195 51.8821 44.1904 51.8564L40.9683 33.4706C40.4845 29.4771 37.0972 26.4717 33.0691 26.4717H11.1704C7.14246 26.4717 3.75524 29.4773 3.27124 33.4708L0.0491149 51.8564C0.0447262 51.8821 0.0407555 51.9078 0.0376207 51.9337C-0.294455 54.6054 1.60897 57.049 4.28084 57.3809C6.93828 57.709 9.36647 55.8308 9.72133 53.1855C12.826 36.0528 12.7058 36.733 12.7152 36.654C12.7857 36.0908 13.6649 36.0829 13.6649 36.774C13.6649 39.1984 13.6822 41.2916 13.6977 43.1384C13.7775 52.7569 13.799 55.3422 11.0421 62.3859L6.21645 74.7147C5.68271 76.0791 6.68834 77.5596 8.15813 77.5596H10.8049L9.01413 96.7905C8.71152 99.6616 10.9617 102.185 13.8736 102.185C16.3764 102.185 18.4621 100.307 18.7267 97.7982L20.6401 77.5596H23.2311L25.1463 97.8152C25.4092 100.306 27.495 102.185 29.9991 102.185ZM26.2773 76.4747C26.1492 75.3061 25.1657 74.4246 23.9899 74.4246H19.8815C18.7064 74.4246 17.7229 75.3057 17.5942 76.4739C17.5934 76.4821 17.5925 76.49 17.5917 76.4981L15.6074 97.486C15.5133 98.378 14.7679 99.0505 13.8736 99.0505C12.8578 99.0505 12.0193 98.1868 12.1336 97.1L14.0318 76.7174C14.1547 75.4917 13.1907 74.4246 11.9573 74.4246H9.69646L13.9614 63.528C16.9388 55.9209 16.9142 52.9515 16.8322 43.1121C16.817 41.2713 16.7996 39.185 16.7996 36.7738C16.7996 34.9213 15.4431 33.3546 13.6438 33.1295C11.6413 32.8808 9.87681 34.2896 9.61078 36.2177L6.62961 52.6649C6.6246 52.6936 6.62 52.7222 6.61645 52.751C6.49775 53.7067 5.62649 54.3889 4.66662 54.2697C3.72013 54.1521 3.04449 53.2986 3.14438 52.3527L6.3665 33.9684C6.37173 33.9379 6.37612 33.9076 6.37967 33.8768C6.65971 31.442 8.71904 29.6058 11.1702 29.6058H33.0689C35.52 29.6058 37.5794 31.4417 37.8594 33.8768C37.8632 33.9073 37.8673 33.9379 37.8726 33.9684L41.0945 52.3525C41.194 53.2961 40.5175 54.1521 39.572 54.2697C38.6163 54.3889 37.7422 53.7122 37.6224 52.751C37.613 52.6723 37.748 53.434 34.6283 36.2179C34.0212 31.7947 27.0714 32.1761 27.0714 36.7123C27.0714 36.7341 27.0718 36.7554 27.0729 36.7771C27.2129 40.1689 27.1519 42.9204 27.098 45.3482C26.964 51.3895 26.8672 55.7546 29.9092 63.5265L34.1744 74.4244H31.914C30.6829 74.4244 29.7157 75.4892 29.8396 76.7188L31.7395 97.1186C31.8478 98.1447 31.0499 99.0492 29.9976 99.0501C29.1034 99.0501 28.3579 98.3773 28.2656 97.5025L26.2796 76.4977C26.2787 76.4906 26.2781 76.4827 26.2773 76.4747Z" fill="#9DA07C"/>
<path d="M106.951 51.8566L103.729 33.4708C103.245 29.4773 99.8577 26.4719 95.8295 26.4719H88.5372C87.6714 26.4719 86.9698 27.1734 86.9698 28.0393C86.9698 28.9051 87.6714 29.6067 88.5372 29.6067H95.8295C98.2807 29.6067 100.34 31.4426 100.62 33.8775C100.632 33.9751 100.477 33.072 103.855 52.3531C103.955 53.2967 103.278 54.1527 102.333 54.2704C101.375 54.3874 100.502 53.708 100.383 52.7517C100.38 52.7228 100.375 52.6942 100.37 52.6656L97.3887 36.2185C96.7816 31.7958 89.8319 32.1763 89.8319 36.713V51.5968C89.8319 53.5358 89.9497 55.4948 90.1802 57.4012L94.4997 97.1195C94.6078 98.1435 93.8122 99.0499 92.7578 99.0507C91.8636 99.0507 91.1182 98.3782 91.0233 97.4796L86.7 58.1314C86.5922 57.1132 85.733 56.3462 84.6952 56.3462H84.6915C83.6582 56.3462 82.7987 57.114 82.6927 58.1251L78.3678 97.4865C78.2738 98.3784 77.5283 99.0507 76.6341 99.0507C75.5868 99.0507 74.7839 98.1475 74.8916 97.1245L79.2092 57.42C79.442 55.4956 79.5601 53.5364 79.5601 51.5968V36.7742C79.5601 33.7243 76.1091 32.0127 73.7317 33.8622C72.9825 34.4449 72.5006 35.28 72.3712 36.2181L69.39 52.6654C69.385 52.694 69.3804 52.7226 69.3769 52.7515C69.2582 53.7072 68.3869 54.3893 67.4271 54.2702C66.9639 54.2127 66.551 53.9782 66.2643 53.6098C65.984 53.2501 65.8572 52.8052 65.9048 52.3531C69.2657 33.1705 69.1288 33.9734 69.1401 33.8772C69.4201 31.4426 71.4795 29.6064 73.9306 29.6064H81.2227C82.0886 29.6064 82.7901 28.9049 82.7901 28.0391C82.7901 27.1732 82.0886 26.4717 81.2227 26.4717H73.9306C69.9027 26.4717 66.5153 29.4773 66.0315 33.4706L62.8091 51.8564C62.8047 51.8821 62.8008 51.9078 62.7976 51.9337C62.4656 54.6054 64.369 57.049 67.0409 57.3809C69.6996 57.709 72.1267 55.8309 72.4813 53.1855C75.586 36.0528 75.4659 36.733 75.4753 36.654C75.5465 36.0814 76.4249 36.0818 76.4249 36.774V51.5966C76.4249 53.411 76.3145 55.2434 76.0947 57.0622L71.7741 96.7905C71.4709 99.6662 73.7267 102.185 76.6337 102.185C79.1367 102.185 81.2221 100.306 81.4842 97.8219L84.6956 68.5939L87.9063 97.8152C88.1692 100.306 90.2546 102.185 92.7589 102.185C95.6602 102.183 97.921 99.6745 97.6165 96.7855L93.2947 57.0438C93.0772 55.2432 92.9668 53.4104 92.9668 51.5968V36.713C92.9668 36.4183 93.167 36.2563 93.5622 36.2319C93.674 36.226 94.2299 36.2133 94.2847 36.654C94.2941 36.7328 94.1589 35.9696 97.2786 53.1857C97.6337 55.8327 100.064 57.7125 102.72 57.3809C105.391 57.049 107.294 54.6056 106.962 51.9339C106.959 51.908 106.955 51.8823 106.951 51.8566Z" fill="#9DA07C"/>
<path d="M56.7595 51.4102C57.6254 51.4102 58.3269 50.7086 58.3269 49.8428V10.2865C58.3269 8.00059 56.4672 6.14062 54.1809 6.14062H52.8189C50.5331 6.14062 48.6731 8.00038 48.6731 10.2865V98.0394C48.6731 100.325 50.5328 102.185 52.8189 102.185H54.1809C56.467 102.185 58.3269 100.325 58.3269 98.0394V57.1573C58.3269 56.2914 57.6254 55.5899 56.7595 55.5899C55.8937 55.5899 55.1922 56.2914 55.1922 57.1573V98.0394C55.1922 98.597 54.7384 99.0505 54.1809 99.0505H52.8189C52.2614 99.0505 51.8079 98.597 51.8079 98.0394V10.2865C51.8079 9.72889 52.2614 9.27539 52.8189 9.27539H54.1809C54.7384 9.27539 55.1922 9.72889 55.1922 10.2865V49.8428C55.1922 50.7084 55.8937 51.4102 56.7595 51.4102Z" fill="#9DA07C"/>
</g>
<defs>
<clipPath id="clip0_3_121">
<rect width="107" height="107" fill="white"/>
</clipPath>
</defs>
</svg>
