<svg width="103" height="103" viewBox="0 0 103 103" fill="none" xmlns="http://www.w3.org/2000/svg">
<g clip-path="url(#clip0_3_131)">
<path d="M71.6486 82.3995H56.1986V68.6662C56.1986 63.9258 52.3557 60.0829 47.6153 60.0829H37.3153V50.6584L60.6276 34.0067C61.0053 33.7393 61.2591 33.3308 61.3315 32.8737C61.3999 32.4181 61.2823 31.9542 61.0053 31.5862L55.8553 24.7195C55.3004 23.9818 54.2614 23.8148 53.5035 24.3419L35.9076 36.513C39.0191 30.651 36.7891 23.3764 30.9271 20.2652C25.0652 17.1537 17.7906 19.3837 14.6793 25.2457C12.1775 29.959 13.0837 35.7575 16.9041 39.4829H14.9986C14.5143 39.4839 14.0527 39.6897 13.7283 40.0494L2.63863 52.375C-0.406095 55.7768 -0.255243 60.9665 2.98196 64.1857L12.0631 73.3184C12.42 73.6756 12.9161 73.8578 13.4193 73.8162C13.9289 73.7769 14.3946 73.5128 14.6896 73.0952L16.7153 70.2284V101.283C16.7153 102.231 17.4839 103 18.432 103H28.732C29.68 103 30.4486 102.231 30.4486 101.283V73.8162H42.4653V82.3995H37.3153C36.3673 82.3995 35.5986 83.1682 35.5986 84.1162V101.283C35.5986 102.231 36.3673 103 37.3153 103H71.6486C72.5967 103 73.3653 102.231 73.3653 101.283V84.1162C73.3653 83.1682 72.5969 82.3995 71.6486 82.3995ZM16.7153 30.8995C16.7153 26.1592 20.5583 22.3162 25.2986 22.3162C30.039 22.3162 33.882 26.1592 33.882 30.8995C33.882 35.6399 30.039 39.4829 25.2986 39.4829C20.5583 39.4829 16.7153 35.6399 16.7153 30.8995ZM29.3843 42.9162L27.0153 47.6542L24.6463 42.9162H29.3843ZM16.7153 61.3017L13.9686 58.3662L16.7153 55.6195V61.3017ZM28.732 70.3829C27.7839 70.3829 27.0153 71.1515 27.0153 72.0995V99.5662H20.1486V51.4995C20.1452 50.8064 19.7253 50.1835 19.0843 49.9202C18.445 49.6513 17.7069 49.7936 17.2131 50.2807L10.3465 57.1474C9.6922 57.8149 9.6922 58.8831 10.3465 59.5507L15.96 65.4045L13.0588 69.4559L5.36813 61.7995C3.40705 59.8588 3.32379 56.7173 5.17929 54.6754L15.7711 42.9162H20.801L25.4875 52.272C25.9198 53.1158 26.9541 53.4494 27.7981 53.0171C28.1185 52.8529 28.3792 52.5924 28.5431 52.272L33.5043 42.3669L54.1043 28.1014L57.2115 32.2385L34.603 48.3924C34.1528 48.7127 33.8845 49.2303 33.882 49.7829V61.7995C33.882 62.7476 34.6506 63.5162 35.5986 63.5162H47.6153C50.4596 63.5162 52.7653 65.8219 52.7653 68.6662V82.3995H45.8986V72.0995C45.8986 71.1515 45.13 70.3829 44.182 70.3829H28.732ZM69.932 99.5662H39.032V85.8329H69.932V99.5662Z" fill="#9DA07C"/>
<path d="M100.832 13.7333C94.1954 13.7333 88.8153 8.3533 88.8153 1.71667C88.8153 0.768637 88.0467 0 87.0987 0C86.1507 0 85.382 0.768637 85.382 1.71667C85.382 8.3533 80.002 13.7333 73.3653 13.7333C72.4173 13.7333 71.6487 14.502 71.6487 15.45C71.6487 16.398 72.4173 17.1667 73.3653 17.1667C80.002 17.1667 85.382 22.5467 85.382 29.1833C85.382 30.1314 86.1507 30.9 87.0987 30.9C88.0467 30.9 88.8153 30.1314 88.8153 29.1833C88.8153 22.5467 94.1954 17.1667 100.832 17.1667C101.78 17.1667 102.549 16.398 102.549 15.45C102.549 14.502 101.78 13.7333 100.832 13.7333ZM87.0987 22.1107C85.6187 19.2567 83.2922 16.9302 80.438 15.45C83.292 13.9698 85.6185 11.6433 87.0987 8.78933C88.5789 11.6433 90.9054 13.9698 93.7594 15.45C90.9054 16.9302 88.5789 19.2567 87.0987 22.1107Z" fill="#9DA07C"/>
<path d="M58.1446 43.2449L53.4656 46.6758L55.4957 49.4444L60.1747 46.0135L58.1446 43.2449Z" fill="#9DA07C"/>
<path d="M79.2216 27.7965L62.0603 40.3896L64.0915 43.1576L81.2528 30.5644L79.2216 27.7965Z" fill="#9DA07C"/>
<path d="M72.4038 19.1676L62.106 26.0332L64.0104 28.8897L74.3082 22.0241L72.4038 19.1676Z" fill="#9DA07C"/>
</g>
<defs>
<clipPath id="clip0_3_131">
<rect width="103" height="103" fill="white"/>
</clipPath>
</defs>
</svg>
