<svg width="99" height="99" viewBox="0 0 99 99" fill="none" xmlns="http://www.w3.org/2000/svg">
<g clip-path="url(#clip0_3_98)">
<path d="M96.446 31.1554C93.0535 27.7627 87.5333 27.7629 84.1397 31.1562C83.0959 32.2009 76.4318 38.8705 75.4138 39.8895V16.9046C75.4138 14.5805 74.5086 12.3955 72.8651 10.7521L64.6618 2.54848C63.0185 0.904922 60.8333 0 58.5091 0H8.70477C3.90695 0 0.00360107 3.90335 0.00360107 8.70117V90.2988C0.00360107 95.0967 3.90695 99 8.70477 99H66.7126C71.5104 99 75.4138 95.0967 75.4138 90.2988V64.5107L96.4458 43.4608C99.8465 40.0604 99.8472 34.5562 96.446 31.1554ZM58.0116 5.80078C58.5596 5.80078 59.6155 5.70584 60.5601 6.65021L68.7635 14.8539C69.6839 15.7745 69.6132 16.7832 69.6132 17.4023H58.0116V5.80078ZM69.613 90.2988C69.613 91.8981 68.3121 93.1992 66.7126 93.1992H8.70477C7.1055 93.1992 5.80438 91.8981 5.80438 90.2988V8.70117C5.80438 7.1019 7.1055 5.80078 8.70477 5.80078H52.2106V20.3027C52.2106 21.9045 53.5092 23.2031 55.111 23.2031H69.613V45.6953C69.613 45.6953 61.056 54.2595 61.0557 54.2597L56.9559 58.3597C56.6376 58.678 56.3974 59.0663 56.2551 59.4934L52.1532 71.7988C51.8057 72.841 52.077 73.9901 52.8539 74.7669C53.6318 75.5447 54.7813 75.8147 55.822 75.4676L68.1274 71.3659C68.5545 71.2235 68.9428 70.9836 69.2611 70.6651L69.613 70.3132V90.2988ZM63.1084 60.4107L67.2101 64.5124L65.6433 66.0792L59.4908 68.13L61.5416 61.9773L63.1084 60.4107ZM71.3111 60.4097L67.2093 56.308C69.3935 54.1221 79.0942 44.4131 81.1515 42.354L85.2532 46.4557L71.3111 60.4097ZM92.3433 39.3598L89.3534 42.3523L85.2517 38.2505L88.2426 35.2571C89.3741 34.1262 91.2137 34.1264 92.3445 35.2571C93.4751 36.3883 93.4811 38.2219 92.3433 39.3598Z" fill="#9DA07C"/>
<path d="M55.1109 29.0039H14.5054C12.9036 29.0039 11.605 30.3025 11.605 31.9043C11.605 33.5061 12.9036 34.8047 14.5054 34.8047H55.1109C56.7127 34.8047 58.0113 33.5061 58.0113 31.9043C58.0113 30.3025 56.7127 29.0039 55.1109 29.0039Z" fill="#9DA07C"/>
<path d="M43.5093 40.6055H14.5054C12.9036 40.6055 11.605 41.9041 11.605 43.5059C11.605 45.1076 12.9036 46.4062 14.5054 46.4062H43.5093C45.1111 46.4062 46.4097 45.1076 46.4097 43.5059C46.4097 41.9041 45.1111 40.6055 43.5093 40.6055Z" fill="#9DA07C"/>
<path d="M43.5093 52.207H14.5054C12.9036 52.207 11.605 53.5056 11.605 55.1074C11.605 56.7092 12.9036 58.0078 14.5054 58.0078H43.5093C45.1111 58.0078 46.4097 56.7092 46.4097 55.1074C46.4097 53.5056 45.1111 52.207 43.5093 52.207Z" fill="#9DA07C"/>
<path d="M43.5093 63.8086H14.5054C12.9036 63.8086 11.605 65.1072 11.605 66.709C11.605 68.3108 12.9036 69.6094 14.5054 69.6094H43.5093C45.1111 69.6094 46.4097 68.3108 46.4097 66.709C46.4097 65.1072 45.1111 63.8086 43.5093 63.8086Z" fill="#9DA07C"/>
<path d="M55.1109 81.5977H37.7086C36.1068 81.5977 34.8082 82.8963 34.8082 84.498C34.8082 86.0998 36.1068 87.3984 37.7086 87.3984H55.1109C56.7127 87.3984 58.0113 86.0998 58.0113 84.498C58.0113 82.8963 56.7127 81.5977 55.1109 81.5977Z" fill="#9DA07C"/>
</g>
<defs>
<clipPath id="clip0_3_98">
<rect width="99" height="99" fill="white"/>
</clipPath>
</defs>
</svg>
