<svg width="66" height="66" viewBox="0 0 66 66" fill="none" xmlns="http://www.w3.org/2000/svg">
<path d="M55.0002 30.2472H60.5002C60.5002 16.1397 49.8494 5.5 35.7227 5.5V11C46.8932 11 55.0002 19.0932 55.0002 30.2472Z" fill="#263845"/>
<path d="M35.7508 22.0007C41.534 22.0007 44.0008 24.4674 44.0008 30.2507H49.5008C49.5008 21.3819 44.6195 16.5007 35.7508 16.5007V22.0007ZM45.1613 36.9689C44.6329 36.4886 43.9385 36.2325 43.2247 36.2545C42.511 36.2766 41.8338 36.5752 41.336 37.0872L34.7553 43.8549C33.1713 43.5524 29.9868 42.5597 26.7088 39.2899C23.4308 36.0092 22.438 32.8164 22.1438 31.2434L28.906 24.6599C29.4187 24.1625 29.7176 23.4852 29.7397 22.7712C29.7618 22.0573 29.5052 21.3628 29.0243 20.8347L18.863 9.66141C18.3819 9.13164 17.7132 8.81029 16.9989 8.76562C16.2847 8.72095 15.5812 8.95647 15.0378 9.42216L9.07028 14.5399C8.59483 15.0171 8.31105 15.6521 8.27278 16.3247C8.23153 17.0122 7.44503 33.2977 20.073 45.9312C31.0895 56.9449 44.889 57.7507 48.6895 57.7507C49.245 57.7507 49.586 57.7342 49.6768 57.7287C50.3492 57.691 50.9839 57.406 51.4588 56.9284L56.5738 50.9582C57.0398 50.4151 57.2758 49.7118 57.2316 48.9975C57.1875 48.2833 56.8666 47.6144 56.3373 47.1329L45.1613 36.9689Z" fill="#263845"/>
</svg>
