<svg width="14" height="15" viewBox="0 0 14 15" fill="none" xmlns="http://www.w3.org/2000/svg">
<path d="M13.5625 7.44043C13.5625 11.1865 10.5273 14.2217 6.78125 14.2217C6.07031 14.2217 5.38672 14.1396 4.75781 13.9209C5.03125 13.4834 5.44141 12.7451 5.60547 12.1436C5.6875 11.8428 6.01562 10.5303 6.01562 10.5303C6.23438 10.9678 6.89062 11.3232 7.57422 11.3232C9.625 11.3232 11.1016 9.43652 11.1016 7.1123C11.1016 4.87012 9.26953 3.1748 6.91797 3.1748C3.99219 3.1748 2.43359 5.14355 2.43359 7.27637C2.43359 8.28809 2.95312 9.51855 3.80078 9.92871C3.9375 9.9834 4.01953 9.95605 4.04688 9.81934C4.04688 9.7373 4.18359 9.27246 4.23828 9.05371C4.23828 8.99902 4.23828 8.91699 4.18359 8.8623C3.91016 8.53418 3.69141 7.90527 3.69141 7.30371C3.69141 5.82715 4.8125 4.37793 6.75391 4.37793C8.39453 4.37793 9.57031 5.49902 9.57031 7.13965C9.57031 8.97168 8.64062 10.2295 7.4375 10.2295C6.78125 10.2295 6.28906 9.68262 6.42578 9.02637C6.61719 8.20605 7 7.33105 7 6.75684C7 6.2373 6.72656 5.7998 6.15234 5.7998C5.46875 5.7998 4.92188 6.51074 4.92188 7.44043C4.92188 8.04199 5.11328 8.45215 5.11328 8.45215C5.11328 8.45215 4.45703 11.2959 4.32031 11.8154C4.18359 12.417 4.23828 13.2373 4.29297 13.7568C1.77734 12.7725 0 10.3389 0 7.44043C0 3.69434 3.03516 0.65918 6.78125 0.65918C10.5273 0.65918 13.5625 3.69434 13.5625 7.44043Z" fill="#F2F2F2"/>
</svg>
