<svg width="16" height="11" viewBox="0 0 16 11" fill="none" xmlns="http://www.w3.org/2000/svg">
<path d="M15.0117 1.8584C15.3398 3.00684 15.3398 5.46777 15.3398 5.46777C15.3398 5.46777 15.3398 7.90137 15.0117 9.07715C14.8477 9.7334 14.3281 10.2256 13.6992 10.3896C12.5234 10.6904 7.875 10.6904 7.875 10.6904C7.875 10.6904 3.19922 10.6904 2.02344 10.3896C1.39453 10.2256 0.875 9.7334 0.710938 9.07715C0.382812 7.90137 0.382812 5.46777 0.382812 5.46777C0.382812 5.46777 0.382812 3.00684 0.710938 1.8584C0.875 1.20215 1.39453 0.682617 2.02344 0.518555C3.19922 0.19043 7.875 0.19043 7.875 0.19043C7.875 0.19043 12.5234 0.19043 13.6992 0.518555C14.3281 0.682617 14.8477 1.20215 15.0117 1.8584ZM6.34375 7.68262L10.2266 5.46777L6.34375 3.25293V7.68262Z" fill="#F2F2F2"/>
</svg>
